<svg xmlns="http://www.w3.org/2000/svg" viewBox="0 0 210 210"><g font-weight="400"><path fill="#01ff02" d="M67.53 107.88c-1.22 1.5-3.43 2.38-6 2.8-1.28 1.8-1.7 3.83-2.22 5.93-1.03 4.2-2.08 8.73-7.03 12.66l-.12.09-.1.1C37.8 144.14 28.2 159.37 26 173.1c-1.1 6.88-.27 13.44 2.93 19.1 3.2 5.65 8.7 10.29 16.53 13.6a85.5 85.5 0 0 0 13.7 4.3c-1-1.23-1.1-3.17-1.19-5.14-4-1-7.6-2.16-10.69-3.46-7.11-3.01-11.67-6.99-14.28-11.6-2.61-4.62-3.35-9.99-2.38-16.06 1.93-12.12 10.9-26.81 24.7-41.04 6-4.84 7.5-10.94 8.52-15.07.52-2.09 1-3.66 1.49-4.34.49-.68.7-.93 2.43-.82.92.05 3.52 1.65 6.35 4.62 2.84 2.97 6.04 7.02 9.36 11.08 3.32 4.07 6.75 8.17 10.25 11.33 3.49 3.17 7.09 5.6 11.13 5.5 4.07-.08 7.7-2.7 11.35-6.03 3.66-3.32 7.34-7.56 10.9-11.65 3.55-4.08 7-8.01 9.93-10.6a17.52 17.52 0 0 1 3.87-2.72c1.05-.48 1.63-.48 2.02-.35.97.34 1.57.62 1.87.79a21.7 21.7 0 0 0-.04 2.25c.04 3.55 1.63 9.45 11 20.26 6.94 8.02 16.41 19.75 20.19 31.25 1.89 5.76 2.37 11.35.67 16.53-1.7 5.18-5.58 10.11-13.08 14.5a112.1 112.1 0 0 1-12.58 6.52c-.06 1.74-.1 3.44-.08 5.07 4.62-1.81 9.4-4.27 15.02-7.55 8.23-4.82 13.07-10.7 15.16-17.08 2.09-6.38 1.43-13.06-.67-19.44-4.2-12.78-14.07-24.74-21.1-32.86-9-10.39-9.83-14.9-9.85-17.25-.02-1.18.51-2.13-.18-3.94-.8-.6-1.77-1.22-2.56-1.72a9.05 9.05 0 0 1-2.23-1.74c-1.86-.65-3.8-.27-5.51.51-1.7.79-3.33 2-5 3.46a80.75 80.75 0 0 0-6.56 6.7c-6.45-5.3-14.95-7.4-23.09-7.35a45.86 45.86 0 0 0-18.3 3.8 31.8 31.8 0 0 0-4.27 2.3 98.62 98.62 0 0 0-4.23-4.8c-3.08-3.22-5.86-5.85-9.46-6.06a9.03 9.03 0 0 0-.52-.02zm37.44 9.46c7.05.05 14.05 1.89 19.33 6.19l-.72.82c-3.55 4.09-7.17 8.23-10.51 11.27-3.35 3.04-6.44 4.78-8.31 4.82-1.91.04-4.77-1.47-7.9-4.3-3.13-2.83-6.48-6.79-9.76-10.82-.8-.96-1.58-1.93-2.36-2.9.96-.6 2.02-1.17 3.18-1.69a41.52 41.52 0 0 1 17.05-3.4z" color="#000" font-family="sans-serif" overflow="visible" style="line-height:normal;font-variant-ligatures:normal;font-variant-position:normal;font-variant-caps:normal;font-variant-numeric:normal;font-variant-alternates:normal;font-feature-settings:normal;text-indent:0;text-align:start;text-decoration-line:none;text-decoration-style:solid;text-decoration-color:#000;text-transform:none;text-orientation:mixed;white-space:normal;shape-padding:0;isolation:auto;mix-blend-mode:normal;solid-color:#000;solid-opacity:1" transform="translate(12.63 -71.46) scale(.88868)"/><g stroke-width="1.33" aria-label="f" font-family="Skull Capz BRK" font-size="53.21" letter-spacing="0" style="line-height:1.25;-inkscape-font-specification:'Skull Capz BRK, Normal';font-variant-ligatures:normal;font-variant-caps:normal;font-variant-numeric:normal;font-feature-settings:normal;text-align:start" word-spacing="0"><g style="line-height:1.25"><path fill="#01ff02" d="M283.18 612.3s2.45-.75 4-.75c2.98.04 6.16.2 9.6.93.97 0 1.04.47 1.26 1.03.52 3 .84 6.9.38 10.42-.57.1-2.88-1.12-3.65-1.09-1.17 0-1.73.88-1.7 2.62.43 5.56 1.41 10.43 2.48 15.93-1.98.5-6.57-.12-8.25-.78 1.51-6.07.48-12.75.5-15.15.04-1.77-.71-2.66-2.26-2.66-.39 0-1.62-.1-2.3.03a22.88 22.88 0 0 0-2.47-4.39c-1.37.56-2 1.74-3.6 2.01a14.16 14.16 0 0 1 3.8 6c1.95 6.05.73 19.38-6.22 19.62-3.59-.7-5.55-5.08-6.4-7.59-1.78-5.92-1.72-11.46 1.71-17.48-2.23.15-3.64.37-5.8.6-1.31-.1-3.03-.2-4.9-.34 2.75 2.39 4.67 7.02 4.7 11.56.06 8.8-2.21 13.34-6.87 13.16-5.17-1.13-7.38-6.96-7.39-13.27 0-4.87.24-9.23 2.32-12.2-3.02-.45-4.39-5.24-5.98-6.16-.83-.55-1.34-1.75-2.95-2.82.04-.24-1.08-.93-1.07-1.16-1.32-.55-1.19-1-2.82-.93-2.55.12-4.65-.13-7.12.42-3.8 1.1-5.37 2.16-5.38 5.45.03 4.03.6 7.3.6 11.42 0 1.5-.1 3.9-.3 7.23-.2 3.07-.13 4.3-.1 6.05 2.1 1.43 2.77 2.14 4.37 3.07 2.25.48 3.95 1.34 5.04 1.62.62.11 1.12-.01 1.5-.38.4-.34.69-.88.94-3.42.25-2.53.7-1.08 2.87 1.18.47.5 2.7.62 4.22.63 1.6.06 2.38-.98 2.84-1.53a21.95 21.95 0 0 0 3.52 5.4c1.61 1.6 3.36 2.4 5.25 2.4a7 7 0 0 0 4.13-1.43 12.66 12.66 0 0 0 4.35-5.96l.29-.8a14.5 14.5 0 0 0 3.36 5.79c1.6 1.6 3.35 2.4 5.24 2.4 1.41 0 2.79-.47 4.14-1.43 1.9-1.38 3-3.32 4-5.91.38-1 2.3-9.9.95-15.12 3.34-.32.86 11.78.87 14.18 0 .62 0 1.15.22 1.52.22.36.62.63 1.2.8 2.4.68 4.2.42 6.5.92 1.76-.17 3.09-1.29 4.78-2.22.51-.11.78-.47.53-1.8l-2.14-12.6c.16-.02.34-.04.52-.04 1.3.02 2.58.6 3.96.38.94 0 1.42-.76 1.44-2.28.02-1.5-.04-3.31-.18-5.46l-.33-5.32a8.6 8.6 0 0 0-.9-3.9c-.53-.9-2.53-1.36-3.7-1.56-3.31-.53-9.55-.13-9.55-.13-1.06 1.19-4.05 3.29-4.05 3.29zm-45.9-.02c3.06.14 7.17 1.1 8.48 3.62 1 2.1 1.46 4.99.5 6.94-.61 1.3-2.63 2.25-2.64 3.64.08 1.55 1.72 2.98 2.31 4.24a19.93 19.93 0 0 1 1.8 7.74c-.03 1.42-.14 1.47-2.34 1.43-1.66-.03-4.21-1.02-4.58-2.08-.1-.34-.15-1.24-.15-2.7-.22-2.76 0-6-1.5-8.25-.68-.23-1.71.23-1.97.85-.22 2.3.2 4.89.18 6.8-.02 1.68-.94 7.78-1.54 7.8-1.34-.28-3.49-1.03-4.99-1.27-1.02-.31-.87-1.55-.93-2.45 1.34-9.3.45-17.54.53-24.36 2.16-1.1 4.63-1.93 6.84-1.95z" aria-label="ROOT" font-family="Graffiti" font-size="40" letter-spacing="10" style="-inkscape-font-specification:'Graffiti, Normal';font-variant-ligatures:normal;font-variant-caps:normal;font-variant-numeric:normal;font-feature-settings:normal;text-align:start" transform="matrix(1.41573 0 0 1.47138 -268.31 -767.66)"/></g><path fill="#01ff02" d="M63.58 164.45c.1 1-.05.95.32 1.77.21.57.62 1.01 1.22 1.33.64.28 1.33.51 2.08.7.74.13 1.47.22 2.18.26.75.03 1.33.05 1.76.05h1.91c.68-.04 1.33-.12 1.97-.27a9.81 9.81 0 0 0 1.81-.58 7.83 7.83 0 0 0 1.76-1.33c.31-.8.05-1.32.26-1.77.39-.52.69-1.08 1.07-1.6a11.1 11.1 0 0 1 1.8-2.02c.36-.28.75-.46 1.18-.53.46-.07.89-.17 1.28-.32.39-.14.7-.37.95-.69.29-.32.43-.89.43-1.7-.04-.88-1-1.46-1.49-2.02v-.06c0-.35.12-.69.37-1 .29-.36.46-.73.53-1.12.22-.79.36-1.55.43-2.3.1-.74.16-1.52.16-2.33 0-2.2-.34-4.19-1.01-5.96a13.11 13.11 0 0 0-2.87-4.63 11.82 11.82 0 0 0-4.47-2.93 15.77 15.77 0 0 0-5.91-1.06c-2.2 0-4.19.35-5.96 1.06a12.4 12.4 0 0 0-4.47 2.93 13.52 13.52 0 0 0-2.82 4.63 16.51 16.51 0 0 0-1.01 5.9c0 1.24.1 2.4.32 3.46.21 1.07.58 2.15 1.11 3.25.04.06.03.1 0 .16-.4.7-1.43 1.08-1.43 2.02 0 .81.14 1.4.42 1.75.29.32.62.55 1.01.7.4.14.8.24 1.23.32.46.03.85.2 1.17.47.5.47 1.01 1 1.54 1.6.53.6.92 1.23 1.17 1.86zm-4.95-6.28c.46-.9 1.3-1.62 1.87-2.34.64-.9 1.03-1.67.16-3.35-.38.38-.34 1.37-1.07 1.81-.28-.18-.5-.51-.64-1.01a10.6 10.6 0 0 1-.32-1.6 28.7 28.7 0 0 1-.16-1.65v-1.22a15 15 0 0 1 .9-5.32 12.7 12.7 0 0 1 2.62-4.1 11.16 11.16 0 0 1 4.04-2.66c1.6-.64 3.35-.96 5.27-.96 1.91 0 3.65.32 5.21.96a11.48 11.48 0 0 1 6.66 6.81c.6 1.63.9 3.42.9 5.38v1.38c0 .7-.07 1.44-.21 2.18a3.1 3.1 0 0 1-.85 1.81c-.42-.6-.59-1.1-1.12-1.8-.38.6-.32 2.71.16 3.34.37.83 1.86 1.47 1.86 2.34 0 .43-.18.71-.53.86a5.6 5.6 0 0 0-.85.21l-.54.1a1.6 1.6 0 0 1-.26.06c-.4.1-.84.35-1.33.74a12.72 12.72 0 0 0-2.5 2.93 7 7 0 0 0-.75 2.56 4.34 4.34 0 0 1-3.3 1.28c-2.18-.15-4.25.23-6.12-.1-.78-.23-1.53-.47-2.23-.86-.75-.6-.37-.96-.37-2.03l-1.17-1.8a7.73 7.73 0 0 0-2.4-2.4c-.21-.1-.39-.25-.7-.28l-1.06-.15c-.31-.1-.6-.23-.85-.37a.92.92 0 0 1-.32-.75zm10 4c0 .2.13.31.38.31.77-.21 1.53-.62 2.29-.95.7.31 1.53.64 2.18.95.18 0 .27-.12.27-.37-.44-1.35-1.56-3.14-2.45-3.67a12.4 12.4 0 0 0-2.66 3.73zm-5.32-10.94c-1.67 3.34-.77 5.07-.36 5.42-.39.27-1.52 1.77-3.15 2.64l1.76.43c.58-.34 1.43-1.03 2.38-1.87 0 0 3.92 1.03 6.03-2.04 1.63-2.38-.34-2.7-.34-2.7 5.28-2.87 10.59-12.31 8.88-15.5l-.88-.68c.07 5.54-3.59 10.12-9.68 15.09-1.84-.7-3.1-3.86-4.64-.79zm8.79 3.86c.1 1.68.17 2.54 1.3 3.34.8.35 1.98.25 2.77-.13a6.27 6.27 0 0 0 2.63-5.29c.2-.66 1.33-.73 1.86-1.06-4.64-1.44-5.15 1.66-7.52 1.15-.54-.12-1.04.7-1.04 1.99z" style="-inkscape-font-specification:'Skull Capz BRK, Normal';font-variant-ligatures:normal;font-variant-caps:normal;font-variant-numeric:normal;font-feature-settings:normal;text-align:start" transform="matrix(3.25091 0 0 2.55625 -126.35 -282.72)"/></g></g><path fill="#0f0" d="M109.92.12A105 105 0 0 0 33.2 28.39a105 105 0 0 0-4.8 148.41 105 105 0 0 0 148.42 4.8 105 105 0 0 0 4.8-148.41A105 105 0 0 0 109.92.12zm-6.8 1.04 7 .44a50.14 50.14 0 0 1 3.07.32c.62.07 1.2.16 1.73.27.53.11.9.24 1.1.38a13.38 13.38 0 0 1 1.16.98 8.06 8.06 0 0 1 1.13 1.18 5.72 5.72 0 0 1 .84 1.38 3 3 0 0 1 .28 1.49c-.02.42-.15.89-.4 1.39a7.8 7.8 0 0 1-.84 1.44 7.62 7.62 0 0 1-1.14 1.2 3.75 3.75 0 0 1-1.23.73c.38 1.2.82 2.27 1.3 3.24a14.69 14.69 0 0 0 2 2.85l-5.92.47a26.27 26.27 0 0 1-2.13-3 95.5 95.5 0 0 0-1.96-3.13 41.1 41.1 0 0 1-.27 2.78l-.36 2.72-6.11-.4c.14-.93.25-1.87.34-2.8.11-.97.2-1.92.26-2.88a111.18 111.18 0 0 0 .15-11.05zm-3.61.34 1.45 4.34a22.7 22.7 0 0 0-4.75.24l-1.12.19.08.99.1.96a24.28 24.28 0 0 0 5.76-.82l-.51 4.55-4.82.5c.03.33.08.66.13 1 .05.32.09.65.12.97a23.86 23.86 0 0 0 5.76-.82l-.51 4.57-11.62 1.23c-.08-1.4-.19-2.8-.32-4.17a187.26 187.26 0 0 0-.88-8.35c-.17-1.38-.36-2.76-.55-4.15L99.5 1.5zM128 3.7l4 3.83c-.32.1-.64.24-.96.4a5.72 5.72 0 0 0-.92.54 3.1 3.1 0 0 0-.75.7 2.45 2.45 0 0 0-.43.94 2.23 2.23 0 0 0 .17 1.42c.21.49.45 1 .71 1.57a10.58 10.58 0 0 1 .67 1.77c.18.64.18 1.34 0 2.1a3.95 3.95 0 0 1-.91 1.82 6 6 0 0 1-1.54 1.23 8.74 8.74 0 0 1-1.91.75c-.67.17-1.33.3-1.97.36l-4.77-4.2a8.41 8.41 0 0 0 1.16-.13c.42-.07.8-.18 1.15-.35.36-.16.67-.38.92-.66a2.15 2.15 0 0 0 .56-1.06c.1-.43.1-.84.03-1.23a4.79 4.79 0 0 0-.32-1.14 10.42 10.42 0 0 0-.5-1.1 14.6 14.6 0 0 1-.53-1.12 6.04 6.04 0 0 1-.31-1.16c-.06-.4-.04-.83.07-1.3a3.73 3.73 0 0 1 .9-1.75 5.86 5.86 0 0 1 1.6-1.17 9.24 9.24 0 0 1 1.96-.72 13.18 13.18 0 0 1 1.94-.34zm-43.45.9-2.06 8.13 6.86 5.12-6.27 3.19-5.39-4.34a85.14 85.14 0 0 0 .82 2.71l.89 2.68L72.68 24a94.35 94.35 0 0 0-.92-4.09 93.7 93.7 0 0 0-2.3-8.06 87.8 87.8 0 0 0-1.37-3.97l6.73-1.91.85 3.4.9 3.35.98-7.53 7-.6zm50.57 1.15 6.53 2.43c.28.1.61.24.99.4a12.2 12.2 0 0 1 1.2.52c.4.18.76.38 1.1.61.34.22.59.45.75.68a14.22 14.22 0 0 1 .94 1.49 8.15 8.15 0 0 1 .75 1.64 6.34 6.34 0 0 1 .34 1.72c.04.58-.05 1.16-.27 1.74a6.68 6.68 0 0 1-.84 1.5c-.36.54-.79 1.04-1.27 1.52a8.79 8.79 0 0 1-1.53 1.2 3.95 3.95 0 0 1-1.58.6c-.25.02-.5.02-.76-.01l-.77-.16-.77-.24-.68-.26a21.85 21.85 0 0 1-2.3-1l-.6 1.87c-.2.61-.38 1.24-.55 1.88l-6.54-2.43a99.09 99.09 0 0 0 3.36-7.93 86.46 86.46 0 0 0 2.5-7.77zm-25.55.06-.21 1.76c-.05.58-.1 1.17-.13 1.77l-.1 1.4a8.75 8.75 0 0 0 2.06-.95 3.84 3.84 0 0 0 .88-.79 1.66 1.66 0 0 0 .41-1c.01-.18-.1-.39-.36-.6a8.42 8.42 0 0 0-1.84-1.23 31.7 31.7 0 0 0-.71-.36zm-46.8 4.06 4.75 3.12a9 9 0 0 0-1.13 1.04 5.99 5.99 0 0 0-.97 1.3 4.84 4.84 0 0 0-.5 1.48 2.54 2.54 0 0 0 .24 1.48 2.48 2.48 0 0 0 1.04 1.13 5 5 0 0 0 1.47.5c.53.09 1.08.11 1.64.07.55-.05 1.05-.13 1.5-.24l.12 5.76a16.19 16.19 0 0 1-3.5.63 13.52 13.52 0 0 1-3.67-.26 10.1 10.1 0 0 1-3.25-1.38 6.58 6.58 0 0 1-2.33-2.7 6.47 6.47 0 0 1-.66-3.36 9.1 9.1 0 0 1 .85-3.27 12.2 12.2 0 0 1 1.91-2.93 16.05 16.05 0 0 1 2.48-2.37zm77.58 1.23-.88 2.07a102.29 102.29 0 0 0-.8 2.08l-.55 1.5c.3.02.68-.01 1.11-.09a8.7 8.7 0 0 0 1.3-.37 5.25 5.25 0 0 0 1.18-.65 1.98 1.98 0 0 0 .71-.9c.1-.26.07-.56-.07-.9a4.84 4.84 0 0 0-.57-1.04 7.24 7.24 0 0 0-.74-.99 10.32 10.32 0 0 0-.7-.71zm15.06 3.46 5.25 3.1-1.7 18.45-5.8-3.42.42-2.85-4.8-2.84-2.2 1.81-5.4-3.18 14.23-11.07zM47.69 18.7l16.2 9.01-5.48 3.92-2.44-1.54-4.53 3.25.76 2.74-5 3.57.05.04-4.74 5.1a311.57 311.57 0 0 0-3.9-3.8l-2.28 2.43a158.6 158.6 0 0 0 4.1 3.61l-4.74 5.11a124.74 124.74 0 0 0-2.99-2.93 187.26 187.26 0 0 0-6.15-5.7 172.9 172.9 0 0 0-3.15-2.77l4.75-5.1A158.9 158.9 0 0 0 32 39.4l2.26-2.45a140.9 140.9 0 0 0-4.02-3.54l4.74-5.11 2.98 2.93A184.17 184.17 0 0 0 41 34.11l3.1 2.85 2.97 2.58-4.33-17.29 4.96-3.55zm61.32.8a85.58 85.58 0 0 1 58.43 26.96 85.58 85.58 0 0 1-3.91 120.97 85.58 85.58 0 0 1-120.97-3.9 85.58 85.58 0 0 1 3.9-120.98 85.58 85.58 0 0 1 62.55-23.05zm45.64 2.65-2.18 1.78 1.8 1.06.38-2.84zm13.53 3.8c1.16.02 2.32.2 3.46.56a16.06 16.06 0 0 1 3.18 1.3l-.92 5.61a9 9 0 0 0-1.41-.6 5.99 5.99 0 0 0-1.59-.37 4.91 4.91 0 0 0-1.55.15 2.54 2.54 0 0 0-1.25.82 2.48 2.48 0 0 0-.61 1.4c-.04.51.01 1.03.14 1.56.13.52.33 1.03.6 1.52a10.6 10.6 0 0 0 .84 1.27l-5.22 2.46a16.2 16.2 0 0 1-2-2.94 13.52 13.52 0 0 1-1.25-3.46 10.1 10.1 0 0 1-.07-3.53 6.57 6.57 0 0 1 1.53-3.23c.8-.93 1.73-1.6 2.8-1.97a9.24 9.24 0 0 1 3.32-.55zM49.38 26l.75 2.72 1.7-1.2L49.38 26zm128.94 5.64 7.79 8.8-2.69 3.7a22.7 22.7 0 0 0-2.96-3.73c-.26-.27-.52-.54-.8-.8-.26.2-.51.42-.76.64l-.72.64c.43.56.88 1.11 1.35 1.64a24.21 24.21 0 0 0 2.66 2.57l-4 2.22-3.22-3.62-.72.67-.73.68c.44.56.89 1.1 1.36 1.64a24.22 24.22 0 0 0 2.65 2.56l-4.02 2.24-7.74-8.74c1.1-.88 2.16-1.78 3.2-2.69a187.18 187.18 0 0 0 6.29-5.56l3.05-2.86zm10.4 21.18a6.8 6.8 0 0 1 6.07 3.39 6.8 6.8 0 0 1-2.46 9.3 6.8 6.8 0 0 1-9.3-2.47 6.8 6.8 0 0 1 2.46-9.3 6.8 6.8 0 0 1 3.23-.92zM20.63 54.48a6.8 6.8 0 0 1 3.24.92 6.8 6.8 0 0 1 2.45 9.3A6.8 6.8 0 0 1 17 67.17a6.8 6.8 0 0 1-2.45-9.31 6.8 6.8 0 0 1 5.59-3.37 6.8 6.8 0 0 1 .48 0zm167.13.47-2.36 1.37 1.64 2.81-2.82 1.64 1.37 2.36 2.82-1.64 1.64 2.82 2.36-1.37-1.64-2.82 2.82-1.64-1.37-2.36-2.82 1.64-1.64-2.81zM21.6 56.6l-1.64 2.81-2.82-1.64-1.37 2.36 2.81 1.64-1.64 2.81 2.36 1.38 1.64-2.82 2.82 1.65 1.37-2.36-2.81-1.64 1.64-2.82-2.36-1.37zm181 12.87 1.85 6.77a49.93 49.93 0 0 1 .7 3c.14.6.24 1.18.3 1.72.07.54.07.92 0 1.16a13.36 13.36 0 0 1-.54 1.42 8.06 8.06 0 0 1-.75 1.45 5.72 5.72 0 0 1-1.03 1.24 3.08 3.08 0 0 1-1.32.76c-.4.11-.9.14-1.45.08a7.59 7.59 0 0 1-1.63-.34 7.63 7.63 0 0 1-1.52-.69 3.75 3.75 0 0 1-1.08-.92 21.63 21.63 0 0 0-2.63 2.28 14.65 14.65 0 0 0-2.02 2.77c1.15-.06 2.3-.14 3.44-.24a187.3 187.3 0 0 0 8.35-.82l4.15-.53 1.15 11.7-4.35 1.41a22.7 22.7 0 0 0-.2-4.75l-.19-1.12-.99.07-.96.1c.02.7.07 1.42.13 2.12a24.21 24.21 0 0 0 .65 3.64l-4.55-.55-.47-4.82-.99.12c-.32.05-.65.09-.98.12.02.71.07 1.42.14 2.12a24.22 24.22 0 0 0 .64 3.65l-4.57-.55-1.14-11.62.7-.04-2.37-5.4a26.28 26.28 0 0 1 2.15-3 82.9 82.9 0 0 0 2.32-2.87c-.9.25-1.8.46-2.71.65l-2.7.54-1.61-5.9c.93-.18 1.86-.37 2.77-.6.95-.2 1.88-.43 2.8-.69a107.06 107.06 0 0 0 5.3-1.6 128.8 128.8 0 0 0 5.2-1.84zM10.45 74.99c.25 0 .5.02.74.07.42.1.85.3 1.31.62a7.8 7.8 0 0 1 1.29 1.07 7.62 7.62 0 0 1 1 1.32 3.75 3.75 0 0 1 .52 1.34 21.62 21.62 0 0 0 3.4-.77c1.03-.34 2.08-.85 3.14-1.5l-.5 5.92a26.28 26.28 0 0 1-3.3 1.61c-1.14.45-2.28.92-3.41 1.42.9.21 1.8.45 2.7.72l2.63.8-1.38 5.97c-.9-.3-1.81-.56-2.73-.8a63.3 63.3 0 0 0-2.79-.72 107.06 107.06 0 0 0-5.42-1.1 131.26 131.26 0 0 0-5.46-.85l1.58-6.84a50.08 50.08 0 0 1 .8-2.96 18.36 18.36 0 0 1 .56-1.67c.2-.5.38-.85.55-1.02a13.37 13.37 0 0 1 1.15-1 8.4 8.4 0 0 1 1.35-.92 5.71 5.71 0 0 1 1.5-.6c.26-.07.51-.1.77-.11zm189.84 2.1-1.74.37-1.71.45-1.35.37c.16.23.38.5.66.8a8.76 8.76 0 0 0 .9.83 3.84 3.84 0 0 0 1.03.58c.37.14.73.16 1.08.07.18-.05.33-.23.46-.55a9.13 9.13 0 0 0 .57-2.14l.1-.78zM10.33 81.97a.97.97 0 0 0-.52.27 4.98 4.98 0 0 0-.8.74 8.65 8.65 0 0 0-.72.87c-.21.3-.37.5-.46.65l1.7.49c.57.15 1.14.29 1.73.42l1.36.31a8.75 8.75 0 0 0-.6-2.17 3.84 3.84 0 0 0-.64-1 1.66 1.66 0 0 0-.91-.57.43.43 0 0 0-.14 0zm8.02 11.73-.07 6.74-2.68 1.06-.06 5.58 2.66 1-.07 6.26-16.69-6.8.07-6.1 16.84-7.74zm-7.29 9.62L8.4 104.4l2.64 1 .02-2.08zm191.86.05 5.85.84-.91 14.72-5.68-1.59c.03-.58.12-1.15.25-1.7.14-.55.23-1.11.27-1.7-.55-.05-1.11-.09-1.68-.12l-1.65-.1c-1.33-.09-2.67-.16-3.99-.23a173.25 173.25 0 0 0-3.97-.1l.42-6.72a170.06 170.06 0 0 0 7.94.65l1.62.1a45 45 0 0 0 1.66.08v-.12c.04-.66.06-1.33.06-2a9.31 9.31 0 0 0-.19-2zM14.2 113.9l.16.03a5.14 5.14 0 0 1 1.7.58 8.1 8.1 0 0 1 1.41.98c.43.37.8.79 1.11 1.26a3.65 3.65 0 0 1 .6 1.37l2 10.36A188.7 188.7 0 0 0 8.8 130.7a188.64 188.64 0 0 0-4.08.93l-1.9-9.84a2.52 2.52 0 0 1 .1-1.3 6.27 6.27 0 0 1 1.11-2.06 12 12 0 0 1 .85-1.1 7.89 7.89 0 0 1 .97-.96c.31-.28.59-.45.82-.5.22-.03.52.01.9.15a15.78 15.78 0 0 1 2.4 1.1l.92.45.61-.99a10.88 10.88 0 0 1 1.64-2.14 1.89 1.89 0 0 1 .93-.54h.13zm176.95 4.14c.9.3 1.8.59 2.7.85a102.92 102.92 0 0 0 8.18 1.96c1.81.34 3.62.65 5.45.93l-1.68 6.82a50.36 50.36 0 0 1-.86 2.95 18.37 18.37 0 0 1-.58 1.66c-.2.5-.4.83-.57 1a13.36 13.36 0 0 1-1.16.98 8.06 8.06 0 0 1-1.37.9 5.72 5.72 0 0 1-1.51.58c-.52.13-1.02.13-1.51.01-.42-.1-.85-.32-1.3-.64a7.8 7.8 0 0 1-1.27-1.1 7.62 7.62 0 0 1-.98-1.33 3.75 3.75 0 0 1-.5-1.34c-1.24.16-2.38.4-3.4.71a14.69 14.69 0 0 0-3.17 1.46l.59-5.92a26.27 26.27 0 0 1 3.33-1.56 90.7 90.7 0 0 0 3.43-1.37c-.9-.22-1.8-.47-2.68-.76l-2.62-.84 1.48-5.94zm-175.83 2.55a2.49 2.49 0 0 0-.47.05.84.84 0 0 0-.55.37 2.2 2.2 0 0 0-.33.67 8.95 8.95 0 0 0-.22 1.49c.56-.11 1.12-.24 1.68-.4a20.48 20.48 0 0 1 1.66-.4 22.73 22.73 0 0 0-.34-.77 2.5 2.5 0 0 0-.43-.61 1.32 1.32 0 0 0-.6-.35 1.47 1.47 0 0 0-.4-.05zm-6.26 1.33a1.5 1.5 0 0 0-.38.03c-.28.05-.5.17-.65.36a1.76 1.76 0 0 0-.37.63c-.1.24-.15.5-.18.78-.03.26-.05.5-.05.73l1.4-.22 1.37-.26.5-.1c-.07-.24-.16-.5-.26-.74a3.18 3.18 0 0 0-.39-.68 1.76 1.76 0 0 0-.56-.44 1.15 1.15 0 0 0-.43-.1zM197 125.99a8.75 8.75 0 0 0 .56 2.18 3.84 3.84 0 0 0 .62 1 1.66 1.66 0 0 0 .9.6c.19.04.41-.04.67-.25a4.98 4.98 0 0 0 .82-.73c.26-.27.5-.56.72-.86l.48-.64-1.7-.52c-.56-.16-1.14-.3-1.71-.45l-1.36-.33zm-5.6 10.45a8.8 8.8 0 0 1 3.53.91 8.83 8.83 0 0 1 2.96 2.15 7.69 7.69 0 0 1 1.78 6.15 11.67 11.67 0 0 1-1.05 3.5 11.45 11.45 0 0 1-2.02 3.02 8.07 8.07 0 0 1-2.67 1.9 7.3 7.3 0 0 1-3.2.61 8.57 8.57 0 0 1-3.55-.89 8.86 8.86 0 0 1-2.95-2.15 7.3 7.3 0 0 1-1.56-2.85 8.33 8.33 0 0 1-.25-3.3 11.45 11.45 0 0 1 1.04-3.48 11.67 11.67 0 0 1 2.04-3.04 8.63 8.63 0 0 1 2.7-1.92 7.69 7.69 0 0 1 3.2-.61zM19.72 137.9c.8 0 1.57.14 2.33.4a7.77 7.77 0 0 1 2.78 1.64A10 10 0 0 1 27 143l3.42 7.09-.5.22 4.16 4.18a26.27 26.27 0 0 1-.9 3.57c-.4 1.16-.78 2.33-1.14 3.52.75-.56 1.51-1.09 2.3-1.6l2.31-1.48 3.65 4.92c-.8.5-1.6 1.02-2.37 1.56a49.5 49.5 0 0 0-2.35 1.66 108.72 108.72 0 0 0-8.54 7.02l-4.19-5.63a50.55 50.55 0 0 1-1.74-2.54 18.37 18.37 0 0 1-.9-1.5c-.26-.48-.4-.83-.42-1.07a13.37 13.37 0 0 1-.02-1.53c0-.55.06-1.1.17-1.63.11-.55.28-1.06.52-1.53a3.08 3.08 0 0 1 .95-1.18 3.91 3.91 0 0 1 1.32-.6 7.75 7.75 0 0 1 3.3-.18c.54.09 1 .24 1.35.46a21.4 21.4 0 0 0 1.62-3.09 14.66 14.66 0 0 0 .88-3.32 124.56 124.56 0 0 0-3.29 1.48 187.26 187.26 0 0 0-7.56 3.63c-1.24.62-2.48 1.26-3.72 1.92l-2.95-6.13a12.62 12.62 0 0 1-1.1-3.49 9.4 9.4 0 0 1 .07-3.46 7.67 7.67 0 0 1 4.35-5.4 9.54 9.54 0 0 1 4.04-.96zm171.56 5.05c-.35-.01-.68.04-1.01.15a3.09 3.09 0 0 0-.88.53c-.27.23-.48.52-.64.86a2.68 2.68 0 0 0-.1 2.05c.12.33.29.63.51.9a2.65 2.65 0 0 0 1.9.9 2.5 2.5 0 0 0 1.03-.18 2.5 2.5 0 0 0 .9-.52 2.73 2.73 0 0 0 .9-1.9 2.76 2.76 0 0 0-.71-1.9 2.67 2.67 0 0 0-1.9-.9zm-172.66 1.31a5.57 5.57 0 0 0-1.12 2.15c-.2.74-.13 1.54.2 2.39.35-.15.7-.31 1.04-.48l1-.48.92-.44 1.02-.49c.34-.16.67-.33 1.01-.51a3.98 3.98 0 0 0-1.73-1.63 5.18 5.18 0 0 0-2.34-.5zm163.55 9.45.7.02a6.1 6.1 0 0 1 1.62.27c.51.16 1 .42 1.47.77a4.15 4.15 0 0 1 1.28 1.6 12.61 12.61 0 0 1 1.04 3.28c.18 1.1.24 2.2.2 3.3a17.7 17.7 0 0 1-.48 3.3 24.66 24.66 0 0 1-1.01 3.28l-5.46-.23c.18-.63.35-1.3.5-1.98a23.4 23.4 0 0 0 .43-2.07 13.8 13.8 0 0 0 .04-4.1 2.23 2.23 0 0 0-.13-.42.8.8 0 0 0-.26-.31 1.52 1.52 0 0 0-.94-.25 4.6 4.6 0 0 0-2.44.7 2.98 2.98 0 0 0-.9.78l-.13.17 3.94 2.94-5.19 4a22.3 22.3 0 0 0-1.49-1.4 28.54 28.54 0 0 0-3.5-2.58 55.7 55.7 0 0 0-1.7-.97l5.96 16.87-4.6 4-16.98-7.45 5.08-4.42 2.58 1.3 4.2-3.66-1.02-2.65 4.66-4.05-.17-.1 5.2-6.97a14.24 14.24 0 0 1 .9-1.1 3.9 3.9 0 0 1 1.13-.84 6.66 6.66 0 0 1 1.36-.49c.53-.13 1.09-.24 1.66-.32a28.4 28.4 0 0 1 1.67-.2l.78-.02zm-154.93 8.04c-.4 0-.74.11-1.03.33-.15.1-.23.33-.24.67a8.87 8.87 0 0 0 .25 2.2l.2.77 1.48-.98 1.43-1.04 1.12-.83a8.76 8.76 0 0 0-2.04-.96 3.7 3.7 0 0 0-1.17-.16zm14.03 2.37 8.45 8.06-.17.17 3.74 2.46 2.01 10.56 1.47-2.18a56.43 56.43 0 0 0 2.76-4.27l5.34 3.53a63.19 63.19 0 0 0-2.59 3.25 63.24 63.24 0 0 0-4.62 7 66.38 66.38 0 0 0-2.01 3.74l-4-2.64-2.16-8.9-3.43 5.22-5.84-3.86a75.81 75.81 0 0 0 3.85-5.32 191.23 191.23 0 0 0 5.12-8.24 124.54 124.54 0 0 0-2.44 2.42 187.25 187.25 0 0 0-5.78 6.08c-.94 1.02-1.87 2.06-2.8 3.11l-8.51-8.1 2.36-3.92a22.7 22.7 0 0 0 2.4 2.68 27.84 27.84 0 0 0 1.73 1.52 20.85 20.85 0 0 0 .7-.7l.67-.7c-.48-.53-.98-1.04-1.49-1.53a24.21 24.21 0 0 0-2.86-2.33l3.8-2.55 3.5 3.34.67-.74a20.85 20.85 0 0 1 .67-.73c-.48-.53-.98-1.03-1.5-1.52a24.2 24.2 0 0 0-2.86-2.34l3.82-2.57zm126.47 10.8-1.57 1.37 2.58 1.27-1-2.63zm-13.4 2.4 3.77 16.85-4.26 2.11-6.33-5.23a59.92 59.92 0 0 0-.16 8.47l-4.1 2.05a108.78 108.78 0 0 0-4.7-7.11 69.29 69.29 0 0 0-5.28-6.45l.85 3.17a187.29 187.29 0 0 0 2.4 8.05c.43 1.31.86 2.64 1.31 3.97l-6.68 2-1.08-4.05a184.16 184.16 0 0 0-1.15-4.02c-.4-1.35-.81-2.69-1.23-4.03a188.18 188.18 0 0 0-1.03-3.06c.04 1.21.1 2.42.22 3.6a60.54 60.54 0 0 0 1.21 8.3c.28 1.39.61 2.76.99 4.14l-4.75.7-7.52-5.2.9 6.17-6.92 1.01a75.8 75.8 0 0 0-.67-6.54 183.85 183.85 0 0 0-.81-5.04c-.31-1.66-.62-3.32-.95-5l4.56-.67 8.53 6.54-.36-2.6c-.1-.86-.22-1.72-.35-2.6-.12-.8-.26-1.61-.43-2.42l6.18-.9-.13-.4 6.68-1.99.18.7 6.25-3.11 3.66 4.64.8-6.87 6.03 3.7-1.3-6.05 5.66-2.83zM76.03 189.1a6.8 6.8 0 0 1 2.47.43 6.8 6.8 0 0 1 3.96 8.77 6.8 6.8 0 0 1-8.77 3.97 6.8 6.8 0 0 1-3.96-8.77 6.8 6.8 0 0 1 6.3-4.4zm.42 2-1.15 3.04-3.05-1.15-.96 2.56 3.05 1.15-1.15 3.05 2.55.96 1.15-3.05 3.05 1.15.96-2.56-3.04-1.14 1.14-3.05-2.55-.97zm15.11.03 8.68.5c.48.03.95.08 1.42.16.45.07.9.23 1.32.47.37.22.75.5 1.16.88a16.62 16.62 0 0 1 1.18 1.2c.39.44.75.87 1.09 1.3a14.04 14.04 0 0 1 .8 1.23 4.98 4.98 0 0 1 .84 3.15 4.15 4.15 0 0 1-.64 1.95 12.61 12.61 0 0 1-2.16 2.67 15.48 15.48 0 0 1-2.65 1.98 17.45 17.45 0 0 1-3.01 1.4 24.66 24.66 0 0 1-3.3.98l-2.81-4.69a44.58 44.58 0 0 0 3.9-1.45 13.4 13.4 0 0 0 1.82-.99 9.57 9.57 0 0 0 1.62-1.23c.11-.12.2-.23.27-.34.07-.1.11-.24.12-.4a1.52 1.52 0 0 0-.3-.91 4.6 4.6 0 0 0-.82-.93 5.72 5.72 0 0 0-1.12-.72 2.98 2.98 0 0 0-1.14-.33l-.21-.01-.29 4.9-6.2-2.13c.15-.67.27-1.34.36-2.01a28.53 28.53 0 0 0 .22-4.34c-.03-.76-.08-1.53-.15-2.29z"/></svg>